<svg width="32" height="32" viewBox="0 0 200 200" fill="none" xmlns="http://www.w3.org/2000/svg">
  <defs>
    <linearGradient id="logoGradient" x1="0%" y1="0%" x2="100%" y2="100%">
      <stop offset="0%" style="stop-color:#3b82f6;stop-opacity:1" />
      <stop offset="100%" style="stop-color:#8b5cf6;stop-opacity:1" />
    </linearGradient>
    <linearGradient id="accentGradient" x1="0%" y1="0%" x2="100%" y2="100%">
      <stop offset="0%" style="stop-color:#06b6d4;stop-opacity:1" />
      <stop offset="100%" style="stop-color:#3b82f6;stop-opacity:1" />
    </linearGradient>
  </defs>
  
  <!-- Outer circle -->
  <circle cx="100" cy="100" r="90" fill="url(#logoGradient)" opacity="0.1" />
  
  <!-- Main hexagon shape -->
  <path
    d="M100 20 L160 55 L160 125 L100 160 L40 125 L40 55 Z"
    fill="url(#logoGradient)"
    stroke="url(#accentGradient)"
    stroke-width="3"
  />
  
  <!-- Inner AI brain symbol -->
  <circle cx="70" cy="80" r="8" fill="white" opacity="0.9" />
  <circle cx="130" cy="80" r="8" fill="white" opacity="0.9" />
  <circle cx="100" cy="100" r="8" fill="white" opacity="0.9" />
  <circle cx="70" cy="120" r="8" fill="white" opacity="0.9" />
  <circle cx="130" cy="120" r="8" fill="white" opacity="0.9" />
  
  <!-- Neural network connections -->
  <line x1="70" y1="80" x2="100" y2="100" stroke="white" stroke-width="2" opacity="0.6" />
  <line x1="130" y1="80" x2="100" y2="100" stroke="white" stroke-width="2" opacity="0.6" />
  <line x1="100" y1="100" x2="70" y2="120" stroke="white" stroke-width="2" opacity="0.6" />
  <line x1="100" y1="100" x2="130" y2="120" stroke="white" stroke-width="2" opacity="0.6" />
  <line x1="70" y1="80" x2="130" y2="80" stroke="white" stroke-width="2" opacity="0.3" />
  <line x1="70" y1="120" x2="130" y2="120" stroke="white" stroke-width="2" opacity="0.3" />
  
  <!-- Upward arrow for escalation -->
  <path
    d="M100 135 L100 145 M95 140 L100 135 L105 140"
    stroke="url(#accentGradient)"
    stroke-width="4"
    stroke-linecap="round"
    stroke-linejoin="round"
    fill="none"
  />
</svg>
